<svg width="100" height="50" viewBox="0 0 186 63" fill="none" xmlns="http://www.w3.org/2000/svg">
<path d="M0.1875 44.8613V15.9453C0.1875 12.8398 1.50586 9.67578 4.14258 6.45312C7.6582 2.23438 12.1113 0.0957031 17.502 0.0371094V12.4297C15.0996 12.4883 13.5176 13.8359 12.7559 16.4727C12.6387 16.8828 12.5801 17.1758 12.5801 17.3516V44.8613C12.5801 47.2637 13.8984 48.9043 16.5352 49.7832C16.9453 49.9004 17.2383 49.959 17.4141 49.959V62.4395C14.0742 62.4395 10.7344 61.2383 7.39453 58.8359C2.64844 55.3203 0.246094 50.6621 0.1875 44.8613ZM22.248 62.4395V49.959C23.1855 49.959 24.2402 49.4609 25.4121 48.4648C26.5254 47.4688 27.1113 46.2676 27.1699 44.8613V17.3516C27.1699 16.2969 26.6719 15.1836 25.6758 14.0117C24.7383 13.0156 23.5957 12.4883 22.248 12.4297V0.0371094C28.166 0.0371094 32.9121 2.58594 36.4863 7.68359C38.5371 10.6133 39.5625 13.3672 39.5625 15.9453V44.8613C39.5625 51.3652 36.6621 56.3457 30.8613 59.8027C27.8145 61.5605 24.9434 62.4395 22.248 62.4395ZM45.5391 55.8477C45.5391 53.2109 46.6816 51.248 48.9668 49.959C49.9629 49.4316 51.0176 49.168 52.1309 49.168C54.7676 49.168 56.7012 50.3105 57.9316 52.5957C58.459 53.5918 58.7227 54.6758 58.7227 55.8477C58.7227 58.543 57.5508 60.4766 55.207 61.6484C54.2109 62.1758 53.1855 62.4395 52.1309 62.4395C49.4355 62.4395 47.502 61.2676 46.3301 58.9238C45.8027 57.9277 45.5391 56.9023 45.5391 55.8477ZM64.875 62V0.476562H77.2676V24.998H80.6953V37.127H77.2676V62H64.875ZM85.5293 37.127V24.998H88.957V0.476562H101.35V62H88.957V37.127H85.5293ZM108.557 62V0.476562H120.949V62H108.557ZM127.277 55.8477C127.277 53.2109 128.42 51.248 130.705 49.959C131.701 49.4316 132.756 49.168 133.869 49.168C136.506 49.168 138.439 50.3105 139.67 52.5957C140.197 53.5918 140.461 54.6758 140.461 55.8477C140.461 58.543 139.289 60.4766 136.945 61.6484C135.949 62.1758 134.924 62.4395 133.869 62.4395C131.174 62.4395 129.24 61.2676 128.068 58.9238C127.541 57.9277 127.277 56.9023 127.277 55.8477ZM146.438 44.8613V15.9453C146.438 12.8398 147.756 9.67578 150.393 6.45312C153.908 2.23438 158.361 0.0957031 163.752 0.0371094V12.4297C161.35 12.4883 159.768 13.8359 159.006 16.4727C158.889 16.8828 158.83 17.1758 158.83 17.3516V44.8613C158.83 47.2637 160.148 48.9043 162.785 49.7832C163.195 49.9004 163.488 49.959 163.664 49.959V62.4395C160.324 62.4395 156.984 61.2383 153.645 58.8359C148.898 55.3203 146.496 50.6621 146.438 44.8613ZM168.498 62.4395V49.959C169.436 49.959 170.49 49.4609 171.662 48.4648C172.775 47.4688 173.361 46.2676 173.42 44.8613V17.3516C173.42 16.2969 172.922 15.1836 171.926 14.0117C170.988 13.0156 169.846 12.4883 168.498 12.4297V0.0371094C174.416 0.0371094 179.162 2.58594 182.736 7.68359C184.787 10.6133 185.812 13.3672 185.812 15.9453V44.8613C185.812 51.3652 182.912 56.3457 177.111 59.8027C174.064 61.5605 171.193 62.4395 168.498 62.4395Z" fill="white"/>
</svg>
